<?xml version="1.0" encoding="utf-8"?>
<!-- Generator: Adobe Illustrator 25.2.0, SVG Export Plug-In . SVG Version: 6.00 Build 0)  -->
<svg version="1.1" id="Layer_1" xmlns="http://www.w3.org/2000/svg" xmlns:xlink="http://www.w3.org/1999/xlink" x="0px" y="0px"
	 viewBox="0 0 660 550" style="enable-background:new 0 0 660 550;" xml:space="preserve">
<style type="text/css">
	.st0{opacity:0.6;fill:url(#SVGID_1_);stroke:#FFFFFF;stroke-miterlimit:10;}
	.st1{fill:url(#SVGID_2_);stroke:#FFFFFF;stroke-miterlimit:10;}
</style>
<linearGradient id="SVGID_1_" gradientUnits="userSpaceOnUse" x1="236.0465" y1="615.191" x2="423.9535" y2="-65.191">
	<stop  offset="0" style="stop-color:#812FCB"/>
	<stop  offset="0.192" style="stop-color:#9F3091"/>
	<stop  offset="0.414" style="stop-color:#D91F71"/>
	<stop  offset="0.69" style="stop-color:#FF1445"/>
	<stop  offset="1" style="stop-color:#ED7E65"/>
</linearGradient>
<rect class="st0" width="660" height="550"/>
<linearGradient id="SVGID_2_" gradientUnits="userSpaceOnUse" x1="306.5527" y1="55.1754" x2="427.6823" y2="493.7668" gradientTransform="matrix(1 0 0 -1 0 604)">
	<stop  offset="0" style="stop-color:#812FCB"/>
	<stop  offset="0.192" style="stop-color:#9F3091"/>
	<stop  offset="0.414" style="stop-color:#D91F71"/>
	<stop  offset="0.69" style="stop-color:#FF1445"/>
	<stop  offset="1" style="stop-color:#ED7E65"/>
</linearGradient>
<path class="st1" d="M531.13,264.22c-30.37,2.77-56.25-6.82-79.76-22.5c-22.84-15.23-43.18-36.02-63.18-56.52l10.91-10.6
	c19.44,19.93,39.17,40.1,60.68,54.43c20.86,13.9,43.63,22.46,69.98,20.05L531.13,264.22z M264.37,236.2
	c21.64,0.74,42.37-1.64,58.43-8.21c8.82-3.62,16.13-8.5,21.26-14.78c4.93-6.07,7.88-13.64,8.19-22.9
	c0.32-9.04-1.84-19.71-6.95-32.18c-9.22-22.52-12.17-38.65-10.57-48.89c1.04-6.68,3.92-11.43,8.28-14.33
	c4.36-2.88,9.7-3.62,15.8-2.3c9.67,2.09,22.05,9.9,35.19,22.66c54.04,52.45,95.27,84.17,124.65,93.67
	c25.27,8.15,41.02-2.65,48.17-33.71l14.83,3.38c-9.67,42.01-31.81,56.38-67.66,44.8c-31.75-10.26-74.9-43.18-130.59-97.24
	c-11.05-10.73-20.81-17.14-27.79-18.67c-1.98-0.41-3.42-0.4-4.18,0.09c-0.76,0.5-1.33,1.78-1.66,3.96
	c-1.21,7.69,1.51,21.02,9.63,40.77c5.98,14.58,8.44,27.34,8.06,38.45c-0.45,12.83-4.61,23.42-11.59,32
	c-6.79,8.39-16.18,14.71-27.25,19.24c-18.16,7.45-41.08,10.15-64.67,9.34L264.37,236.2z M636.94,470.67H23.55v-15.25h613.37v15.25
	H636.94z M566.61,441.51H93.88v-15.25h98.06c17.84-15.61,30.92-35.8,35.3-56.93c3.94-18.99,0.76-38.86-12.53-56.79
	c-10.06-13.63-17.33-26.55-21.65-38.79c-4.5-12.78-5.83-24.88-3.85-36.18c2.14-12.24,12.73-20.74,23.06-29.07
	c9.61-7.7,18.94-15.23,15.34-22.54c-2.23-4.54-8.3-7.96-14.51-11.48c-5.81-3.29-11.75-6.64-16.51-11.56
	c-12.22,1.78-18.81,4.09-28.73,10.76c1.49-30.1,8.01-48.67,42.64-52.45c7.04-11.93,24.98-13.86,44.75-15.98
	c27.79-2.97,41.08-8.5,61.7-25.6c-4.5,24.57-5.92,41.62,3.46,66.01c8.05,20.97,15.28,39.87-5.11,67.88l-12.28-8.93
	c15.52-21.29,9.65-36.56,3.17-53.51c-4.41-11.48-9.04-23.58-9.22-38.52c-12.15,4.82-26.59,6.35-40.09,7.81
	c-16.94,1.82-32.08,3.44-33.88,10.03l-1.46,5.35c-12.67,0.63-26.28,1.96-34.09,13.64c5.31-1.58,10.57-1.91,16.06-2.11
	c4.75,6.39,10.04,10.03,17.01,13.97c8.3,4.7,16.38,9.27,20.7,18c8.96,18.23-5.04,29.48-19.44,41.08
	c-8.14,6.53-16.43,13.21-17.59,19.84c-1.51,8.69-0.41,18.22,3.2,28.49c3.82,10.82,10.37,22.45,19.49,34.79
	c16.11,21.78,19.98,45.86,15.21,68.89c-4.05,19.49-14.29,38.16-28.51,53.87h23.4c2.63-12.35,7.43-23.65,14.09-34.09
	c8.03-12.56,18.68-23.78,31.48-33.86l5.8-4.57l4.75,5.69c11.16,13.39,25.52,23.06,40.91,28.85c16.31,6.16,33.73,7.97,49.79,5.36
	l2.45,15.01c-18.63,3.02-38.81,0.95-57.6-6.16c-15.5-5.83-30.1-15.1-42.19-27.74c-9.09,7.85-16.74,16.33-22.59,25.52
	c-5.11,8.01-8.93,16.61-11.29,25.92h177.28c2.59-0.63,4.93-1.44,7.04-2.39c8.17-3.73,13.39-10.08,16.11-17.6
	c2.88-7.97,3.1-17.35,1.12-26.6c-0.97-4.55-2.45-9.02-4.36-13.21c-8.84-19.31-30.98-30.08-52.94-40.75
	c-32.33-15.71-64.31-31.25-63.9-73.17l15.19,0.13c-0.34,32.31,27.34,45.74,55.3,59.33c24.41,11.86,49.03,23.81,60.17,48.11
	c2.43,5.29,4.25,10.8,5.44,16.36c1.03,4.81,1.58,9.67,1.6,14.47c21.67,4.5,38.16,0.16,49.14-8.39c5.72-4.46,9.99-10.08,12.71-16.22
	c2.7-6.05,3.85-12.55,3.42-18.88c-0.74-10.67-6.16-20.74-16.61-26.75l7.56-13.23c15.28,8.75,23.18,23.42,24.25,38.93
	c0.61,8.71-1.01,17.73-4.72,26.1c-3.69,8.3-9.45,15.93-17.23,21.98c-13.99,10.91-34.31,16.65-60.21,11.61
	c-0.45,1.78-0.97,3.56-1.6,5.29c-1.96,5.44-4.82,10.44-8.64,14.83h107.89V441.51L566.61,441.51z M501.2,300.73
	c-23.33,0.99-43.76-5.18-62.3-15.71c-18.13-10.3-34.33-24.73-49.66-40.59l10.94-10.55c14.45,14.96,29.59,28.46,46.21,37.91
	c16.22,9.2,33.98,14.62,54.18,13.75L501.2,300.73z"/>
</svg>
